<svg xmlns="http://www.w3.org/2000/svg" viewBox="0 0 512 512" role="img" aria-label="Lumora">
  <rect width="512" height="512" rx="120" fill="#6C3FC5"/>
  <!-- ears -->
  <path d="M150 118 L118 262 L214 206 Z" fill="#7B4AD6" stroke="#3E2378" stroke-width="10" stroke-linejoin="round"/>
  <path d="M362 118 L394 262 L298 206 Z" fill="#7B4AD6" stroke="#3E2378" stroke-width="10" stroke-linejoin="round"/>
  <path d="M162 158 L142 244 L200 210 Z" fill="#F5A623"/>
  <path d="M350 158 L370 244 L312 210 Z" fill="#F5A623"/>
  <!-- head -->
  <path d="M256 176 C332 176 372 236 372 306 C372 380 322 428 256 428 C190 428 140 380 140 306 C140 236 180 176 256 176 Z" fill="#7B4AD6" stroke="#3E2378" stroke-width="10"/>
  <!-- muzzle -->
  <path d="M256 300 C302 300 334 340 334 374 C334 406 300 428 256 428 C212 428 178 406 178 374 C178 340 210 300 256 300 Z" fill="#FBE7CC"/>
  <!-- eyes -->
  <circle cx="210" cy="300" r="24" fill="#00C2A8"/>
  <circle cx="302" cy="300" r="24" fill="#00C2A8"/>
  <circle cx="210" cy="300" r="9" fill="#0F0F24"/>
  <circle cx="302" cy="300" r="9" fill="#0F0F24"/>
  <!-- nose -->
  <path d="M256 344 C270 344 280 354 280 364 C280 378 268 388 256 388 C244 388 232 378 232 364 C232 354 242 344 256 344 Z" fill="#0F0F24"/>
</svg>
